<svg version="1.1" preserveAspectRatio="none" xmlns="http://www.w3.org/2000/svg" width="500" height="500" viewBox="0 0 500 500"><rect width="100%" height="100%" fill="#192537" fill-opacity="1"/><svg viewBox="120.9233 247.711 379.7426 91.8664" width="333" height="80.55854465630141" x="83.5px" y="209.7207px" xmlns="http://www.w3.org/2000/svg" xmlns:xlink="http://www.w3.org/1999/xlink" preserveAspectRatio="none"><defs></defs><style>.companyName {fill:#E9E9E9;fill-opacity:1;}.icon1 {fill:#B09E80;fill-opacity:0.98;}.icon2 {fill:#E9E9E9;fill-opacity:1;}.icon3 {fill:#716551;fill-opacity:1;}.icon3-str {stroke:#716551;stroke-opacity:1;}.shapeStroke-str {stroke:#E9E9E9;stroke-opacity:1;}</style><g opacity="1" transform="rotate(0 295.7946 247.711)">
<svg width="30" height="23.7328" x="295.7946" y="247.711" version="1.1" preserveAspectRatio="none" viewBox="25.9679012298584 30.976905822753903 48.06419372558594 38.023284912109375">
  <g transform="matrix(1 0 0 1 0 0)" class="icon1"><title>Artboard 265</title><path d="M32,69H68a2,2,0,0,0,2-1.67l4-24a2,2,0,0,0-3-2.07L58.93,48.17l-7.1-16a2,2,0,0,0-3.66,0l-7.1,16L29,41.26a2,2,0,0,0-3,2.07l4,24A2,2,0,0,0,32,69Zm9-16.26a2,2,0,0,0,1.61.16,2,2,0,0,0,1.21-1.09L50,37.92l6.17,13.89a2,2,0,0,0,1.21,1.09A2,2,0,0,0,59,52.74l10.34-5.91L66.31,65H33.69l-3-18.17Z"></path></g>
</svg>
</g><g opacity="1" transform="rotate(0 120.9233 263.5774)">
<svg width="159.8713" height="2" x="120.9233" y="263.5774" version="1.1" preserveAspectRatio="none" viewBox="0 0 159.8713 2">
  <defs><rect x="0" y="0" width="159.8713" height="2" rx="0px" ry="0px" id="id-sr1BtIxl1691418956669"></rect></defs><use class="icon1 shapeStroke-str" style="stroke-width:0;" xlink:href="#id-sr1BtIxl1691418956669"></use>
</svg>
</g><g opacity="1" transform="rotate(0 340.7946 263.5774)">
<svg width="159.8713" height="2" x="340.7946" y="263.5774" version="1.1" preserveAspectRatio="none" viewBox="0 0 159.8713 2">
  <defs><rect x="0" y="0" width="159.8713" height="2" rx="0px" ry="0px" id="id-R9TavoXY1691418956669"></rect></defs><use class="icon1 shapeStroke-str" style="stroke-width:0;" xlink:href="#id-R9TavoXY1691418956669"></use>
</svg>
</g><g opacity="1" transform="rotate(0 120.9233 289.5774)">
<svg width="379.7426" height="50" x="120.9233" y="289.5774" version="1.1" preserveAspectRatio="none" viewBox="2.4 -28.76 222.68 29.32">
  <g transform="matrix(1 0 0 1 0 0)" class="companyName"><path id="id-D6z1nYkh8" d="M21.08-20.28L21.08-20.28Q21.08-18.52 20.36-17L20.36-17Q19.04-14.16 15.72-13.04L15.72-13.04Q14.56-12.64 13.72-12.64L13.72-12.64Q11.24-12.64 9.44-13.56L9.44-13.56L9.44-13.96Q12.36-13.32 14.84-14.60L14.84-14.60Q17.04-15.72 17.84-18.28L17.84-18.28Q18.08-19.08 18.08-19.80Q18.08-20.52 18.08-20.68L18.08-20.68Q18-23.48 16.60-25.14Q15.20-26.80 12.68-26.80L12.68-26.80L8.08-26.80L8.08-2.92Q8.12-1.88 8.86-1.14Q9.60-0.40 10.64-0.40L10.64-0.40L11.16-0.40L11.16 0L2.40 0L2.40-0.40L2.92-0.40Q3.96-0.40 4.70-1.14Q5.44-1.88 5.48-2.92L5.48-2.92L5.48-25.28Q5.36-26.28 4.64-26.94Q3.92-27.60 2.92-27.60L2.92-27.60L2.44-27.60L2.40-28L12.84-28Q16.68-28 18.88-25.94Q21.08-23.88 21.08-20.28Z M35.52-26.76L35.52-26.76L32.96-26.76L32.96-2.92Q32.96-1.88 33.70-1.14Q34.44-0.40 35.52-0.40L35.52-0.40L36-0.40L36.04 0L27.28 0L27.28-0.40L27.80-0.40Q28.84-0.40 29.58-1.12Q30.32-1.84 30.36-2.88L30.36-2.88L30.36-25.08Q30.32-26.12 29.58-26.86Q28.84-27.60 27.80-27.60L27.80-27.60L27.28-27.60L27.28-28L38.08-28Q41.72-28 43.80-25.98Q45.88-23.96 45.88-20.74Q45.88-17.52 43.90-15.18Q41.92-12.84 39.08-12.84L39.08-12.84Q39.68-12.56 40.50-11.74Q41.32-10.92 41.96-10.04L41.96-10.04Q45.40-5.12 46.44-3.98Q47.48-2.84 47.92-2.42Q48.36-2 48.88-1.60Q49.40-1.20 49.92-0.96L49.92-0.96Q51.08-0.40 52.40-0.40L52.40-0.40L52.40 0L50.20 0Q48.48 0 47-0.62Q45.52-1.24 44.78-1.90Q44.04-2.56 43.50-3.18Q42.96-3.80 40.52-7.32Q38.08-10.84 37.68-11.34Q37.28-11.84 36.84-12.32L36.84-12.32Q35.56-13.68 34.28-13.68L34.28-13.68L34.28-14.08Q34.60-14.04 35.12-14.04Q35.64-14.04 36.40-14.08L36.40-14.08Q41.36-14.20 42.64-18.24L42.64-18.24Q42.88-19.04 42.88-19.74Q42.88-20.44 42.88-20.64L42.88-20.64Q42.80-23.32 41.48-24.96Q40.16-26.60 37.92-26.72L37.92-26.72Q36.96-26.76 35.52-26.76Z M81.36-0.40L81.36-0.40L81.68-0.40L81.68 0L72.68 0L72.68-0.40L73.04-0.40Q73.88-0.40 74.30-0.94Q74.72-1.48 74.72-1.96Q74.72-2.44 74.56-2.92L74.56-2.92L72-9.72L61.20-9.72L58.52-2.88Q58.36-2.40 58.36-1.94Q58.36-1.48 58.78-0.94Q59.20-0.40 60.04-0.40L60.04-0.40L60.40-0.40L60.40 0L52.36 0L52.36-0.40L52.72-0.40Q53.72-0.40 54.68-1.04Q55.64-1.68 56.24-2.92L56.24-2.92L65.28-24.44Q66.76-27.68 66.76-28.56L66.76-28.56L67.12-28.56L77.84-2.92Q78.40-1.68 79.36-1.04Q80.32-0.40 81.36-0.40ZM66.72-23.76L61.68-10.92L71.52-10.92L66.72-23.76Z M115.08-27.60L114.36-27.60Q113.36-27.60 112.64-26.90Q111.92-26.20 111.88-25.20L111.88-25.20L111.88-4.56Q111.88-2.24 112.16-0.16L112.16-0.16L112.24 0.56L111.88 0.56L90.08-22.72L90.08-2.80Q90.12-1.40 91.32-0.72L91.32-0.72Q91.88-0.40 92.52-0.40L92.52-0.40L93.28-0.40L93.28 0L85.04 0L85.04-0.40L85.80-0.40Q86.80-0.40 87.52-1.10Q88.24-1.80 88.24-2.84L88.24-2.84L88.24-23.60Q88.24-26.04 87.96-27.96L87.96-27.96L87.88-28.60L88.28-28.60L110.08-5.32L110.08-25.16Q110.04-26.20 109.32-26.90Q108.60-27.60 107.60-27.60L107.60-27.60L106.84-27.60L106.84-28L115.08-28L115.08-27.60Z M120.88-0.40L121.40-0.40Q122.44-0.40 123.18-1.14Q123.92-1.88 123.96-2.92L123.96-2.92L123.96-25.32Q123.84-26.28 123.12-26.94Q122.40-27.60 121.40-27.60L121.40-27.60L120.92-27.60L120.88-28L132.60-28Q133.84-28 135.30-28.24Q136.76-28.48 137.36-28.72L137.36-28.72L137.36-23.68L136.96-23.68L136.96-24.40Q136.96-25.36 136.30-26.04Q135.64-26.72 134.72-26.76L134.72-26.76L126.56-26.76L126.56-14.40L133.32-14.40Q134.12-14.44 134.68-15Q135.24-15.56 135.24-16.40L135.24-16.40L135.24-16.96L135.64-16.96L135.64-10.64L135.24-10.64L135.24-11.24Q135.24-12.04 134.70-12.60Q134.16-13.16 133.36-13.20L133.36-13.20L126.56-13.20L126.56-1.24L132.28-1.24Q135.24-1.24 136.80-2.56Q138.36-3.88 139.40-6.48L139.40-6.48L139.80-6.48L137.48 0L120.88 0L120.88-0.40Z M145.56-0.40L146.08-0.40Q147.12-0.40 147.86-1.14Q148.60-1.88 148.64-2.92L148.64-2.92L148.64-25.32Q148.52-26.28 147.80-26.94Q147.08-27.60 146.08-27.60L146.08-27.60L145.60-27.60L145.56-28L157.28-28Q158.52-28 159.98-28.24Q161.44-28.48 162.04-28.72L162.04-28.72L162.04-23.68L161.64-23.68L161.64-24.40Q161.64-25.36 160.98-26.04Q160.32-26.72 159.40-26.76L159.40-26.76L151.24-26.76L151.24-14.40L158-14.40Q158.80-14.44 159.36-15Q159.92-15.56 159.92-16.40L159.92-16.40L159.92-16.96L160.32-16.96L160.32-10.64L159.92-10.64L159.92-11.24Q159.92-12.04 159.38-12.60Q158.84-13.16 158.04-13.20L158.04-13.20L151.24-13.20L151.24-1.24L156.96-1.24Q159.92-1.24 161.48-2.56Q163.04-3.88 164.08-6.48L164.08-6.48L164.48-6.48L162.16 0L145.56 0L145.56-0.40Z M191.80-23.76L191.80-24.44Q191.80-25.40 191.12-26.10Q190.44-26.80 189.52-26.84L189.52-26.84L181.92-26.84L181.92-2.88Q181.96-1.84 182.70-1.12Q183.44-0.40 184.48-0.40L184.48-0.40L185-0.40L185 0L176.24 0L176.24-0.40L176.76-0.40Q177.80-0.40 178.54-1.12Q179.28-1.84 179.32-2.84L179.32-2.84L179.32-26.84L171.72-26.84Q170.76-26.80 170.10-26.10Q169.44-25.40 169.44-24.44L169.44-24.44L169.44-23.76L169.04-23.72L169.04-28.76Q169.64-28.52 171.12-28.28Q172.60-28.04 173.84-28.04L173.84-28.04L187.36-28.04Q189.32-28.04 190.62-28.34Q191.92-28.64 192.20-28.76L192.20-28.76L192.20-23.72L191.80-23.76Z M216.32-0.40L216.84-0.40Q217.88-0.40 218.62-1.12Q219.36-1.84 219.40-2.88L219.40-2.88L219.40-13.24L203.04-13.24L203.04-2.92Q203.04-1.88 203.80-1.14Q204.56-0.40 205.60-0.40L205.60-0.40L206.12-0.40L206.12 0L197.36 0L197.36-0.40L197.88-0.40Q198.92-0.40 199.66-1.14Q200.40-1.88 200.44-2.92L200.44-2.92L200.44-25.12Q200.40-26.16 199.66-26.88Q198.92-27.60 197.88-27.60L197.88-27.60L197.36-27.60L197.36-28L206.12-28L206.12-27.60L205.60-27.60Q204.56-27.60 203.82-26.88Q203.08-26.16 203.04-25.12L203.04-25.12L203.04-14.44L219.40-14.44L219.40-25.12Q219.36-26.56 218.12-27.28L218.12-27.28Q217.52-27.60 216.84-27.60L216.84-27.60L216.32-27.60L216.32-28L225.08-28L225.08-27.60L224.56-27.60Q223.52-27.60 222.78-26.86Q222.04-26.12 222-25.08L222-25.08L222-2.92Q222.04-1.88 222.78-1.14Q223.52-0.40 224.56-0.40L224.56-0.40L225.08-0.40L225.08 0L216.32 0L216.32-0.40Z"/></g>
</svg>
</g></svg></svg>